<svg xmlns="http://www.w3.org/2000/svg" xmlns:xlink="http://www.w3.org/1999/xlink" width="700" zoomAndPan="magnify" viewBox="0 0 810 809.999993" height="350" preserveAspectRatio="xMidYMid meet" version="1.0"><defs><g/><clipPath id="4400421954"><path d="M 747.625 418.542969 L 761.152344 418.542969 L 761.152344 432.074219 L 747.625 432.074219 Z M 747.625 418.542969 " clip-rule="nonzero"/></clipPath><clipPath id="3d57e747b3"><path d="M 754.386719 418.542969 C 750.652344 418.542969 747.625 421.574219 747.625 425.308594 C 747.625 429.042969 750.652344 432.070312 754.386719 432.070312 C 758.121094 432.070312 761.152344 429.042969 761.152344 425.308594 C 761.152344 421.574219 758.121094 418.542969 754.386719 418.542969 Z M 754.386719 418.542969 " clip-rule="nonzero"/></clipPath></defs><g clip-path="url(#4400421954)"><g clip-path="url(#3d57e747b3)"><path fill="#ff3131" d="M 747.625 418.542969 L 761.152344 418.542969 L 761.152344 432.074219 L 747.625 432.074219 Z M 747.625 418.542969 " fill-opacity="1" fill-rule="nonzero"/></g></g><g fill="#ffffff" fill-opacity="1"><g transform="translate(80.999999, 430.056848)"><g><path d="M 31.328125 1.015625 C 26.429688 1.015625 22.070312 0.410156 18.25 -0.796875 C 14.425781 -2.003906 11.242188 -3.59375 8.703125 -5.5625 C 6.160156 -7.53125 4.210938 -9.6875 2.859375 -12.03125 L 10.546875 -21.421875 L 11.75 -21.421875 C 13.875 -18.265625 16.570312 -15.75 19.84375 -13.875 C 23.113281 -12.007812 26.941406 -11.078125 31.328125 -11.078125 C 35.066406 -11.078125 37.882812 -11.863281 39.78125 -13.4375 C 41.6875 -15.019531 42.640625 -17.195312 42.640625 -19.96875 C 42.640625 -21.644531 42.332031 -23.046875 41.71875 -24.171875 C 41.113281 -25.296875 40.097656 -26.257812 38.671875 -27.0625 C 37.253906 -27.875 35.335938 -28.570312 32.921875 -29.15625 L 23.828125 -31.234375 C 17.484375 -32.679688 12.753906 -35.085938 9.640625 -38.453125 C 6.535156 -41.828125 4.984375 -46.207031 4.984375 -51.59375 C 4.984375 -55.582031 5.976562 -59.09375 7.96875 -62.125 C 9.96875 -65.15625 12.878906 -67.507812 16.703125 -69.1875 C 20.523438 -70.863281 25.09375 -71.703125 30.40625 -71.703125 C 35.851562 -71.703125 40.519531 -70.984375 44.40625 -69.546875 C 48.289062 -68.109375 51.570312 -65.910156 54.25 -62.953125 L 47.328125 -53.46875 L 46.125 -53.46875 C 44.125 -55.5625 41.832031 -57.128906 39.25 -58.171875 C 36.675781 -59.222656 33.726562 -59.75 30.40625 -59.75 C 26.570312 -59.75 23.65625 -59.070312 21.65625 -57.71875 C 19.65625 -56.375 18.65625 -54.507812 18.65625 -52.125 C 18.65625 -49.894531 19.359375 -48.117188 20.765625 -46.796875 C 22.171875 -45.472656 24.597656 -44.441406 28.046875 -43.703125 L 37.328125 -41.765625 C 44.191406 -40.316406 49.171875 -37.859375 52.265625 -34.390625 C 55.359375 -30.929688 56.90625 -26.414062 56.90625 -20.84375 C 56.90625 -16.425781 55.953125 -12.582031 54.046875 -9.3125 C 52.148438 -6.039062 49.28125 -3.5 45.4375 -1.6875 C 41.601562 0.113281 36.898438 1.015625 31.328125 1.015625 Z M 31.328125 1.015625 "/></g></g><g transform="translate(141.728076, 430.056848)"><g><path d="M 20.796875 1.015625 C 17.378906 1.015625 14.410156 0.390625 11.890625 -0.859375 C 9.378906 -2.117188 7.445312 -3.96875 6.09375 -6.40625 C 4.738281 -8.84375 4.0625 -11.769531 4.0625 -15.1875 C 4.0625 -18.34375 4.738281 -20.988281 6.09375 -23.125 C 7.445312 -25.269531 9.539062 -27.023438 12.375 -28.390625 C 15.207031 -29.765625 18.914062 -30.828125 23.5 -31.578125 C 26.6875 -32.085938 29.109375 -32.648438 30.765625 -33.265625 C 32.429688 -33.878906 33.550781 -34.570312 34.125 -35.34375 C 34.707031 -36.113281 35 -37.097656 35 -38.296875 C 35 -40.003906 34.398438 -41.304688 33.203125 -42.203125 C 32.015625 -43.109375 30.035156 -43.5625 27.265625 -43.5625 C 24.296875 -43.5625 21.472656 -42.898438 18.796875 -41.578125 C 16.128906 -40.253906 13.8125 -38.515625 11.84375 -36.359375 L 10.875 -36.359375 L 5.265625 -44.8125 C 7.972656 -47.8125 11.273438 -50.148438 15.171875 -51.828125 C 19.078125 -53.503906 23.332031 -54.34375 27.9375 -54.34375 C 35 -54.34375 40.109375 -52.84375 43.265625 -49.84375 C 46.429688 -46.84375 48.015625 -42.585938 48.015625 -37.078125 L 48.015625 -13.921875 C 48.015625 -11.535156 49.0625 -10.34375 51.15625 -10.34375 C 51.957031 -10.34375 52.742188 -10.488281 53.515625 -10.78125 L 54.203125 -10.59375 L 55.171875 -1.25 C 54.421875 -0.769531 53.382812 -0.375 52.0625 -0.0625 C 50.75 0.238281 49.300781 0.390625 47.71875 0.390625 C 44.53125 0.390625 42.039062 -0.21875 40.25 -1.4375 C 38.457031 -2.664062 37.175781 -4.585938 36.40625 -7.203125 L 35.390625 -7.296875 C 32.773438 -1.753906 27.910156 1.015625 20.796875 1.015625 Z M 25.046875 -9 C 28.140625 -9 30.613281 -10.035156 32.46875 -12.109375 C 34.320312 -14.191406 35.25 -17.085938 35.25 -20.796875 L 35.25 -26.203125 L 34.328125 -26.390625 C 33.523438 -25.753906 32.46875 -25.21875 31.15625 -24.78125 C 29.851562 -24.34375 27.976562 -23.914062 25.53125 -23.5 C 22.625 -23.007812 20.535156 -22.175781 19.265625 -21 C 17.992188 -19.832031 17.359375 -18.164062 17.359375 -16 C 17.359375 -13.71875 18.035156 -11.976562 19.390625 -10.78125 C 20.742188 -9.59375 22.628906 -9 25.046875 -9 Z M 25.046875 -9 "/></g></g><g transform="translate(197.959566, 430.056848)"><g><path d="M 7.6875 0 L 7.6875 -74.75 L 21.078125 -74.75 L 21.078125 -46.359375 L 22.09375 -46.171875 C 23.863281 -48.785156 26.035156 -50.800781 28.609375 -52.21875 C 31.191406 -53.632812 34.304688 -54.34375 37.953125 -54.34375 C 49.710938 -54.34375 55.59375 -47.671875 55.59375 -34.328125 L 55.59375 0 L 42.203125 0 L 42.203125 -32.640625 C 42.203125 -36.273438 41.476562 -38.914062 40.03125 -40.5625 C 38.582031 -42.207031 36.328125 -43.03125 33.265625 -43.03125 C 29.523438 -43.03125 26.554688 -41.78125 24.359375 -39.28125 C 22.171875 -36.78125 21.078125 -32.890625 21.078125 -27.609375 L 21.078125 0 Z M 7.6875 0 "/></g></g><g transform="translate(260.428257, 430.056848)"><g><path d="M 14.359375 -59.703125 C 11.941406 -59.703125 9.972656 -60.4375 8.453125 -61.90625 C 6.941406 -63.375 6.1875 -65.269531 6.1875 -67.59375 C 6.1875 -69.875 6.941406 -71.75 8.453125 -73.21875 C 9.972656 -74.6875 11.941406 -75.421875 14.359375 -75.421875 C 15.972656 -75.421875 17.40625 -75.082031 18.65625 -74.40625 C 19.914062 -73.726562 20.890625 -72.800781 21.578125 -71.625 C 22.273438 -70.445312 22.625 -69.101562 22.625 -67.59375 C 22.625 -66.070312 22.273438 -64.710938 21.578125 -63.515625 C 20.890625 -62.328125 19.914062 -61.394531 18.65625 -60.71875 C 17.40625 -60.039062 15.972656 -59.703125 14.359375 -59.703125 Z M 7.6875 0 L 7.6875 -53.328125 L 21.078125 -53.328125 L 21.078125 0 Z M 7.6875 0 "/></g></g><g transform="translate(289.148382, 430.056848)"><g><path d="M 22.140625 1.015625 C 17.335938 1.015625 13.671875 -0.28125 11.140625 -2.875 C 8.609375 -5.46875 7.34375 -9.410156 7.34375 -14.703125 L 7.34375 -74.75 L 20.734375 -74.75 L 20.734375 -15.234375 C 20.734375 -11.972656 22.085938 -10.34375 24.796875 -10.34375 C 25.578125 -10.34375 26.398438 -10.472656 27.265625 -10.734375 L 27.9375 -10.546875 L 29.15625 -0.234375 C 28.414062 0.148438 27.429688 0.453125 26.203125 0.671875 C 24.972656 0.898438 23.617188 1.015625 22.140625 1.015625 Z M 22.140625 1.015625 "/></g></g></g><g fill="#ffffff" fill-opacity="1"><g transform="translate(338.124894, 423.497389)"><g><path d="M 19.421875 -1.0625 L 19.953125 -1.0625 L 19.953125 0 L 4.78125 0 L 4.78125 -1.0625 L 5.3125 -1.0625 C 5.875 -1.0625 6.367188 -1.269531 6.796875 -1.6875 C 7.222656 -2.113281 7.59375 -2.609375 7.90625 -3.171875 C 8.226562 -3.742188 8.457031 -4.363281 8.59375 -5.03125 C 8.738281 -5.707031 8.8125 -6.332031 8.8125 -6.90625 L 8.8125 -63.484375 C 8.8125 -63.972656 8.738281 -64.535156 8.59375 -65.171875 C 8.457031 -65.816406 8.226562 -66.421875 7.90625 -66.984375 C 7.59375 -67.546875 7.222656 -68.019531 6.796875 -68.40625 C 6.367188 -68.800781 5.90625 -69 5.40625 -69 L 4.890625 -69 L 4.890625 -70.0625 L 20.0625 -70.0625 L 20.0625 -69 L 19.53125 -69 C 18.96875 -69 18.472656 -68.800781 18.046875 -68.40625 C 17.617188 -68.019531 17.242188 -67.546875 16.921875 -66.984375 C 16.609375 -66.421875 16.363281 -65.816406 16.1875 -65.171875 C 16.007812 -64.535156 15.921875 -63.972656 15.921875 -63.484375 L 15.921875 -38.859375 L 42.890625 -65.609375 C 43.316406 -66.097656 43.53125 -66.660156 43.53125 -67.296875 C 43.53125 -68.429688 43.101562 -69 42.25 -69 L 41.71875 -69 L 41.71875 -70.0625 L 54.671875 -70.0625 L 54.671875 -69 L 54.140625 -69 C 53.148438 -69 52.125 -68.644531 51.0625 -67.9375 C 50 -67.226562 48.9375 -66.34375 47.875 -65.28125 L 25.578125 -43.09375 L 49.046875 -7.53125 C 49.117188 -7.394531 49.4375 -6.972656 50 -6.265625 C 50.5625 -5.554688 51.25 -4.8125 52.0625 -4.03125 C 52.882812 -3.25 53.804688 -2.554688 54.828125 -1.953125 C 55.859375 -1.359375 56.90625 -1.0625 57.96875 -1.0625 L 57.96875 0 L 55.40625 0 C 53.289062 0 51.503906 -0.125 50.046875 -0.375 C 48.597656 -0.625 47.34375 -1.03125 46.28125 -1.59375 C 45.21875 -2.15625 44.28125 -2.859375 43.46875 -3.703125 C 42.65625 -4.554688 41.820312 -5.625 40.96875 -6.90625 L 20.375 -38 L 15.921875 -33.4375 L 15.921875 -6.90625 C 15.921875 -6.332031 16.007812 -5.726562 16.1875 -5.09375 C 16.363281 -4.457031 16.59375 -3.835938 16.875 -3.234375 C 17.15625 -2.628906 17.507812 -2.113281 17.9375 -1.6875 C 18.363281 -1.269531 18.859375 -1.0625 19.421875 -1.0625 Z M 19.421875 -1.0625 "/></g></g></g><g fill="#ffffff" fill-opacity="1"><g transform="translate(400.858848, 423.497389)"><g><path d="M 10.609375 -21.4375 C 10.898438 -18.96875 11.503906 -16.617188 12.421875 -14.390625 C 13.335938 -12.160156 14.554688 -10.191406 16.078125 -8.484375 C 17.597656 -6.785156 19.457031 -5.421875 21.65625 -4.390625 C 23.851562 -3.367188 26.398438 -2.859375 29.296875 -2.859375 C 30.859375 -2.859375 32.503906 -3.085938 34.234375 -3.546875 C 35.972656 -4.015625 37.582031 -4.671875 39.0625 -5.515625 C 40.550781 -6.367188 41.878906 -7.414062 43.046875 -8.65625 C 44.210938 -9.894531 45.007812 -11.289062 45.4375 -12.84375 L 46.390625 -12.84375 L 46.390625 -4.890625 C 45.960938 -4.890625 45.484375 -4.742188 44.953125 -4.453125 C 44.421875 -4.171875 43.800781 -3.816406 43.09375 -3.390625 C 41.675781 -2.546875 39.765625 -1.644531 37.359375 -0.6875 C 34.953125 0.269531 31.769531 0.75 27.8125 0.75 C 24.625 0.75 21.597656 0.289062 18.734375 -0.625 C 15.867188 -1.550781 13.335938 -2.96875 11.140625 -4.875 C 8.953125 -6.789062 7.203125 -9.234375 5.890625 -12.203125 C 4.578125 -15.179688 3.921875 -18.722656 3.921875 -22.828125 C 3.921875 -25.441406 4.363281 -28.09375 5.25 -30.78125 C 6.132812 -33.46875 7.476562 -35.890625 9.28125 -38.046875 C 11.09375 -40.210938 13.410156 -41.96875 16.234375 -43.3125 C 19.066406 -44.65625 22.46875 -45.328125 26.4375 -45.328125 C 29.96875 -45.328125 33.0625 -44.722656 35.71875 -43.515625 C 38.375 -42.316406 40.566406 -40.65625 42.296875 -38.53125 C 44.035156 -36.40625 45.328125 -33.890625 46.171875 -30.984375 C 47.023438 -28.085938 47.453125 -24.90625 47.453125 -21.4375 Z M 26.015625 -41.828125 C 23.535156 -41.828125 21.390625 -41.332031 19.578125 -40.34375 C 17.773438 -39.351562 16.238281 -38.078125 14.96875 -36.515625 C 13.695312 -34.960938 12.707031 -33.191406 12 -31.203125 C 11.289062 -29.222656 10.828125 -27.242188 10.609375 -25.265625 L 40.875 -25.265625 C 40.800781 -27.316406 40.425781 -29.332031 39.75 -31.3125 C 39.082031 -33.289062 38.144531 -35.054688 36.9375 -36.609375 C 35.738281 -38.171875 34.21875 -39.429688 32.375 -40.390625 C 30.539062 -41.347656 28.421875 -41.828125 26.015625 -41.828125 Z M 26.015625 -41.828125 "/></g></g></g><g fill="#ffffff" fill-opacity="1"><g transform="translate(454.994755, 423.497389)"><g><path d="M 47.671875 -44.578125 L 47.671875 -43.53125 C 47.171875 -43.53125 46.671875 -43.351562 46.171875 -43 C 45.679688 -42.644531 45.207031 -42.179688 44.75 -41.609375 C 44.289062 -41.046875 43.863281 -40.425781 43.46875 -39.75 C 43.082031 -39.082031 42.75 -38.460938 42.46875 -37.890625 L 24.203125 1.796875 L 6.046875 -38.328125 C 5.554688 -39.453125 4.921875 -40.597656 4.140625 -41.765625 C 3.359375 -42.941406 2.367188 -43.53125 1.171875 -43.53125 L 1.171875 -44.578125 L 15.71875 -44.578125 L 15.71875 -43.53125 C 15.289062 -43.53125 14.738281 -43.316406 14.0625 -42.890625 C 13.394531 -42.460938 13.0625 -41.859375 13.0625 -41.078125 C 13.0625 -40.722656 13.34375 -39.910156 13.90625 -38.640625 L 26.109375 -11.140625 L 39.28125 -39.8125 C 39.5625 -40.519531 39.703125 -41.050781 39.703125 -41.40625 C 39.703125 -42.039062 39.398438 -42.550781 38.796875 -42.9375 C 38.191406 -43.332031 37.679688 -43.53125 37.265625 -43.53125 L 37.265625 -44.578125 Z M 47.671875 -44.578125 "/></g></g></g><g fill="#ffffff" fill-opacity="1"><g transform="translate(507.113839, 423.497389)"><g><path d="M 32.796875 0 L 32.796875 -5.40625 L 32.265625 -4.890625 C 30.503906 -3.117188 28.472656 -1.734375 26.171875 -0.734375 C 23.867188 0.253906 21.085938 0.75 17.828125 0.75 C 15.359375 0.75 13.238281 0.46875 11.46875 -0.09375 C 9.695312 -0.664062 8.242188 -1.460938 7.109375 -2.484375 C 5.972656 -3.515625 5.140625 -4.703125 4.609375 -6.046875 C 4.085938 -7.390625 3.828125 -8.804688 3.828125 -10.296875 C 3.828125 -12.703125 4.476562 -14.820312 5.78125 -16.65625 C 7.09375 -18.5 8.988281 -20.128906 11.46875 -21.546875 C 13.945312 -22.960938 16.972656 -24.253906 20.546875 -25.421875 C 24.117188 -26.585938 28.203125 -27.738281 32.796875 -28.875 C 32.660156 -31.632812 32.097656 -33.863281 31.109375 -35.5625 C 30.117188 -37.257812 28.945312 -38.582031 27.59375 -39.53125 C 26.25 -40.488281 24.832031 -41.128906 23.34375 -41.453125 C 21.863281 -41.773438 20.59375 -41.9375 19.53125 -41.9375 C 17.6875 -41.9375 16.070312 -41.648438 14.6875 -41.078125 C 13.3125 -40.515625 12.109375 -39.789062 11.078125 -38.90625 C 10.054688 -38.019531 9.191406 -37.0625 8.484375 -36.03125 C 7.785156 -35.007812 7.222656 -34.039062 6.796875 -33.125 L 5.84375 -33.125 L 5.84375 -40.875 C 6.40625 -40.9375 6.929688 -41.109375 7.421875 -41.390625 C 7.921875 -41.679688 8.523438 -41.96875 9.234375 -42.25 C 10.296875 -42.675781 11.742188 -43.296875 13.578125 -44.109375 C 15.421875 -44.921875 18.007812 -45.328125 21.34375 -45.328125 C 25.226562 -45.328125 28.375 -44.832031 30.78125 -43.84375 C 33.1875 -42.851562 35.046875 -41.539062 36.359375 -39.90625 C 37.671875 -38.28125 38.535156 -36.421875 38.953125 -34.328125 C 39.378906 -32.242188 39.59375 -30.109375 39.59375 -27.921875 L 39.59375 -6.90625 C 39.59375 -5.488281 39.910156 -4.160156 40.546875 -2.921875 C 41.179688 -1.679688 42.03125 -1.0625 43.09375 -1.0625 L 43.09375 0 Z M 32.796875 -10.078125 L 32.796875 -25.265625 L 31.734375 -25.046875 C 30.035156 -24.628906 27.96875 -24.066406 25.53125 -23.359375 C 23.09375 -22.648438 20.773438 -21.726562 18.578125 -20.59375 C 16.378906 -19.457031 14.5 -18.109375 12.9375 -16.546875 C 11.382812 -14.992188 10.609375 -13.191406 10.609375 -11.140625 C 10.609375 -8.878906 11.53125 -7.003906 13.375 -5.515625 C 15.21875 -4.035156 17.625 -3.296875 20.59375 -3.296875 C 22.925781 -3.296875 24.976562 -3.804688 26.75 -4.828125 C 28.519531 -5.859375 30.148438 -7.1875 31.640625 -8.8125 Z M 32.796875 -10.078125 "/></g></g></g><g fill="#ffffff" fill-opacity="1"><g transform="translate(558.277588, 423.497389)"><g><path d="M 38.53125 0 L 38.53125 -4.671875 C 37.332031 -3.328125 35.722656 -2.085938 33.703125 -0.953125 C 31.679688 0.179688 29.148438 0.75 26.109375 0.75 C 22.359375 0.75 19.085938 0.09375 16.296875 -1.21875 C 13.503906 -2.53125 11.1875 -4.242188 9.34375 -6.359375 C 7.5 -8.484375 6.132812 -10.910156 5.25 -13.640625 C 4.363281 -16.367188 3.921875 -19.179688 3.921875 -22.078125 C 3.921875 -24.910156 4.378906 -27.722656 5.296875 -30.515625 C 6.222656 -33.316406 7.601562 -35.8125 9.4375 -38 C 11.28125 -40.195312 13.582031 -41.96875 16.34375 -43.3125 C 19.101562 -44.65625 22.289062 -45.328125 25.90625 -45.328125 C 28.3125 -45.328125 30.679688 -44.882812 33.015625 -44 C 35.347656 -43.113281 37.1875 -41.960938 38.53125 -40.546875 L 38.53125 -61.25 C 38.53125 -62.457031 38.351562 -63.585938 38 -64.640625 C 37.644531 -65.703125 36.617188 -66.269531 34.921875 -66.34375 L 34.921875 -67.40625 L 45.546875 -70.703125 L 45.546875 -6.90625 C 45.546875 -6.332031 45.613281 -5.707031 45.75 -5.03125 C 45.894531 -4.363281 46.109375 -3.742188 46.390625 -3.171875 C 46.671875 -2.609375 47.023438 -2.113281 47.453125 -1.6875 C 47.878906 -1.269531 48.375 -1.0625 48.9375 -1.0625 L 48.9375 0 Z M 26.859375 -2.765625 C 28.347656 -2.765625 29.796875 -3.0625 31.203125 -3.65625 C 32.617188 -4.257812 33.859375 -5.070312 34.921875 -6.09375 C 35.984375 -7.125 36.847656 -8.328125 37.515625 -9.703125 C 38.191406 -11.085938 38.53125 -12.59375 38.53125 -14.21875 L 38.53125 -28.765625 C 38.53125 -30.742188 38.101562 -32.53125 37.25 -34.125 C 36.40625 -35.71875 35.347656 -37.082031 34.078125 -38.21875 C 32.804688 -39.351562 31.40625 -40.21875 29.875 -40.8125 C 28.351562 -41.414062 26.890625 -41.71875 25.484375 -41.71875 C 23.140625 -41.71875 21.046875 -41.164062 19.203125 -40.0625 C 17.367188 -38.96875 15.8125 -37.554688 14.53125 -35.828125 C 13.257812 -34.097656 12.304688 -32.148438 11.671875 -29.984375 C 11.035156 -27.828125 10.71875 -25.6875 10.71875 -23.5625 C 10.71875 -21.082031 11.070312 -18.625 11.78125 -16.1875 C 12.488281 -13.75 13.53125 -11.554688 14.90625 -9.609375 C 16.289062 -7.660156 17.972656 -6.046875 19.953125 -4.765625 C 21.941406 -3.492188 24.242188 -2.828125 26.859375 -2.765625 Z M 26.859375 -2.765625 "/></g></g></g><g fill="#ffffff" fill-opacity="1"><g transform="translate(615.385653, 423.497389)"><g><path d="M 6.265625 0 L 6.265625 -1.0625 C 6.828125 -1.0625 7.320312 -1.269531 7.75 -1.6875 C 8.175781 -2.113281 8.53125 -2.609375 8.8125 -3.171875 C 9.09375 -3.742188 9.300781 -4.363281 9.4375 -5.03125 C 9.582031 -5.707031 9.65625 -6.332031 9.65625 -6.90625 L 9.65625 -36.3125 C 9.65625 -37.507812 9.476562 -38.65625 9.125 -39.75 C 8.769531 -40.851562 7.742188 -41.4375 6.046875 -41.5 L 6.046875 -42.46875 L 16.671875 -45.859375 L 16.671875 -6.90625 C 16.671875 -6.332031 16.738281 -5.707031 16.875 -5.03125 C 17.019531 -4.363281 17.234375 -3.742188 17.515625 -3.171875 C 17.796875 -2.609375 18.148438 -2.113281 18.578125 -1.6875 C 19.003906 -1.269531 19.5 -1.0625 20.0625 -1.0625 L 20.0625 0 Z M 6.796875 -56.046875 C 6.796875 -57.460938 7.269531 -58.664062 8.21875 -59.65625 C 9.175781 -60.644531 10.363281 -61.140625 11.78125 -61.140625 C 13.195312 -61.140625 14.398438 -60.644531 15.390625 -59.65625 C 16.378906 -58.664062 16.875 -57.460938 16.875 -56.046875 C 16.875 -54.628906 16.378906 -53.460938 15.390625 -52.546875 C 14.398438 -51.628906 13.195312 -51.171875 11.78125 -51.171875 C 10.363281 -51.171875 9.175781 -51.628906 8.21875 -52.546875 C 7.269531 -53.460938 6.796875 -54.628906 6.796875 -56.046875 Z M 6.796875 -56.046875 "/></g></g></g><g fill="#ffffff" fill-opacity="1"><g transform="translate(644.68278, 423.497389)"><g><path d="M 21.765625 15.1875 C 20.773438 18.15625 19.519531 20.171875 18 21.234375 C 16.476562 22.296875 14.898438 22.828125 13.265625 22.828125 C 12.203125 22.828125 11.265625 22.679688 10.453125 22.390625 C 9.640625 22.109375 8.929688 21.773438 8.328125 21.390625 C 7.734375 21.003906 7.257812 20.632812 6.90625 20.28125 C 6.550781 19.925781 6.335938 19.640625 6.265625 19.421875 L 9.765625 10.828125 C 10.117188 12.097656 10.472656 13.050781 10.828125 13.6875 C 11.179688 14.394531 11.675781 15.03125 12.3125 15.59375 C 12.945312 16.164062 13.726562 16.453125 14.65625 16.453125 C 16.351562 16.453125 17.695312 15.210938 18.6875 12.734375 L 23.890625 -0.3125 L 6.796875 -38.953125 C 6.441406 -39.804688 5.859375 -40.78125 5.046875 -41.875 C 4.234375 -42.976562 3.117188 -43.53125 1.703125 -43.53125 L 1.703125 -44.578125 L 15.71875 -44.578125 L 15.71875 -43.53125 C 15.425781 -43.53125 15.066406 -43.28125 14.640625 -42.78125 C 14.222656 -42.28125 14.015625 -41.644531 14.015625 -40.875 C 14.015625 -40.238281 14.15625 -39.671875 14.4375 -39.171875 L 27.5 -9.125 L 40.015625 -39.8125 C 40.234375 -40.300781 40.34375 -40.757812 40.34375 -41.1875 C 40.34375 -41.894531 40.109375 -42.460938 39.640625 -42.890625 C 39.179688 -43.316406 38.707031 -43.53125 38.21875 -43.53125 L 38.21875 -44.578125 L 48.515625 -44.578125 L 48.515625 -43.53125 C 47.378906 -43.53125 46.40625 -43.050781 45.59375 -42.09375 C 44.78125 -41.132812 44.125 -40.054688 43.625 -38.859375 Z M 21.765625 15.1875 "/></g></g></g><g fill="#ffffff" fill-opacity="1"><g transform="translate(697.651049, 423.497389)"><g><path d="M 32.796875 0 L 32.796875 -5.40625 L 32.265625 -4.890625 C 30.503906 -3.117188 28.472656 -1.734375 26.171875 -0.734375 C 23.867188 0.253906 21.085938 0.75 17.828125 0.75 C 15.359375 0.75 13.238281 0.46875 11.46875 -0.09375 C 9.695312 -0.664062 8.242188 -1.460938 7.109375 -2.484375 C 5.972656 -3.515625 5.140625 -4.703125 4.609375 -6.046875 C 4.085938 -7.390625 3.828125 -8.804688 3.828125 -10.296875 C 3.828125 -12.703125 4.476562 -14.820312 5.78125 -16.65625 C 7.09375 -18.5 8.988281 -20.128906 11.46875 -21.546875 C 13.945312 -22.960938 16.972656 -24.253906 20.546875 -25.421875 C 24.117188 -26.585938 28.203125 -27.738281 32.796875 -28.875 C 32.660156 -31.632812 32.097656 -33.863281 31.109375 -35.5625 C 30.117188 -37.257812 28.945312 -38.582031 27.59375 -39.53125 C 26.25 -40.488281 24.832031 -41.128906 23.34375 -41.453125 C 21.863281 -41.773438 20.59375 -41.9375 19.53125 -41.9375 C 17.6875 -41.9375 16.070312 -41.648438 14.6875 -41.078125 C 13.3125 -40.515625 12.109375 -39.789062 11.078125 -38.90625 C 10.054688 -38.019531 9.191406 -37.0625 8.484375 -36.03125 C 7.785156 -35.007812 7.222656 -34.039062 6.796875 -33.125 L 5.84375 -33.125 L 5.84375 -40.875 C 6.40625 -40.9375 6.929688 -41.109375 7.421875 -41.390625 C 7.921875 -41.679688 8.523438 -41.96875 9.234375 -42.25 C 10.296875 -42.675781 11.742188 -43.296875 13.578125 -44.109375 C 15.421875 -44.921875 18.007812 -45.328125 21.34375 -45.328125 C 25.226562 -45.328125 28.375 -44.832031 30.78125 -43.84375 C 33.1875 -42.851562 35.046875 -41.539062 36.359375 -39.90625 C 37.671875 -38.28125 38.535156 -36.421875 38.953125 -34.328125 C 39.378906 -32.242188 39.59375 -30.109375 39.59375 -27.921875 L 39.59375 -6.90625 C 39.59375 -5.488281 39.910156 -4.160156 40.546875 -2.921875 C 41.179688 -1.679688 42.03125 -1.0625 43.09375 -1.0625 L 43.09375 0 Z M 32.796875 -10.078125 L 32.796875 -25.265625 L 31.734375 -25.046875 C 30.035156 -24.628906 27.96875 -24.066406 25.53125 -23.359375 C 23.09375 -22.648438 20.773438 -21.726562 18.578125 -20.59375 C 16.378906 -19.457031 14.5 -18.109375 12.9375 -16.546875 C 11.382812 -14.992188 10.609375 -13.191406 10.609375 -11.140625 C 10.609375 -8.878906 11.53125 -7.003906 13.375 -5.515625 C 15.21875 -4.035156 17.625 -3.296875 20.59375 -3.296875 C 22.925781 -3.296875 24.976562 -3.804688 26.75 -4.828125 C 28.519531 -5.859375 30.148438 -7.1875 31.640625 -8.8125 Z M 32.796875 -10.078125 "/></g></g></g></svg>